<?xml version="1.0" standalone="no"?>
<!DOCTYPE svg PUBLIC "-//W3C//DTD SVG 20010904//EN"
 "http://www.w3.org/TR/2001/REC-SVG-20010904/DTD/svg10.dtd">
<svg version="1.0" xmlns="http://www.w3.org/2000/svg"
 width="946.000000pt" height="946.000000pt" viewBox="0 0 946.000000 946.000000"
 preserveAspectRatio="xMidYMid meet">

<g transform="translate(0.000000,946.000000) scale(0.100000,-0.100000)"
fill="white" stroke="none">
<path d="M4565 7100 c-308 -17 -564 -87 -869 -235 -151 -74 -212 -110 -200
-118 5 -3 50 -16 99 -30 50 -14 122 -35 160 -45 112 -32 279 -69 435 -97 80
-14 168 -30 195 -35 28 -6 127 -26 220 -44 94 -19 296 -60 450 -92 154 -31
338 -69 409 -83 84 -17 131 -31 134 -40 6 -17 -8 -16 -428 39 -168 21 -458 57
-645 79 -675 80 -1022 122 -1128 136 -59 8 -130 15 -158 15 l-50 0 -132 -132
c-142 -142 -307 -352 -395 -502 -29 -48 -52 -90 -52 -92 0 -2 -11 -27 -25 -56
-74 -161 -178 -467 -215 -633 -18 -82 -23 -144 -27 -347 -3 -137 -3 -248 1
-248 9 0 34 26 126 130 323 367 657 682 956 901 122 90 376 163 727 209 78 11
228 31 332 45 202 27 704 52 822 41 56 -6 340 -78 553 -141 104 -31 552 -155
904 -250 93 -25 193 -54 222 -64 30 -10 54 -15 54 -11 0 11 -77 225 -88 246
-6 10 -37 73 -70 139 -65 134 -142 258 -235 382 -55 72 -66 82 -101 87 -77 13
-533 114 -635 141 -55 14 -66 35 -19 35 18 0 132 -9 253 -20 121 -11 240 -20
265 -19 l45 0 -82 79 c-143 139 -375 298 -573 393 -195 93 -474 180 -675 211
-99 16 -357 37 -405 34 -14 0 -83 -4 -155 -8z"/>
<path d="M5070 5763 c-429 -20 -927 -83 -1211 -153 -127 -31 -199 -63 -257
-113 -65 -57 -79 -63 -33 -14 25 26 42 50 38 53 -10 10 -97 -38 -184 -102 -43
-31 -80 -60 -83 -64 -3 -3 -57 -49 -120 -102 -109 -90 -170 -148 -158 -148 3
0 25 7 49 15 176 63 774 128 1265 139 219 5 207 2 -56 -14 -280 -18 -744 -83
-830 -117 l-35 -13 43 5 c295 37 493 48 854 47 363 0 418 -3 418 -22 0 -8 -78
-124 -182 -270 -26 -36 -81 -115 -122 -175 -42 -61 -95 -132 -118 -158 l-43
-47 -135 -19 c-74 -11 -205 -27 -290 -36 -85 -8 -193 -20 -240 -25 -80 -9
-315 -29 -565 -46 l-110 -8 75 -7 c41 -3 208 -8 370 -9 l295 -3 -325 -18
c-217 -13 -427 -18 -630 -16 -303 2 -305 2 -344 26 -38 24 -39 24 -72 6 -63
-34 -123 -99 -173 -188 -19 -34 -51 -178 -51 -231 0 -24 -3 -26 -22 -20 -13 4
-32 13 -43 20 -40 28 -38 12 5 -32 l45 -45 -42 16 c-24 10 -53 15 -66 11 -29
-7 -112 -94 -162 -169 l-39 -59 -6 -161 c-4 -89 -4 -232 -1 -317 3 -85 3 -182
-1 -215 -23 -180 -23 -182 3 -198 13 -9 96 -28 184 -43 133 -22 163 -30 175
-47 39 -55 112 -108 178 -131 31 -11 3 -14 -213 -19 -308 -8 -458 -18 -448
-28 10 -10 198 -29 1283 -129 993 -91 1235 -115 1382 -132 115 -13 102 -14
438 48 116 21 570 102 720 129 74 13 227 39 340 59 271 48 390 69 600 106 278
50 282 51 340 60 30 5 120 20 200 35 80 15 164 29 188 32 60 8 63 23 4 23 -27
0 -83 3 -125 6 l-77 7 19 31 c21 34 61 167 61 203 0 50 88 99 303 168 81 26
146 50 143 52 -2 2 -59 -1 -126 -7 -68 -5 -125 -8 -127 -6 -3 2 7 55 21 118
13 62 27 140 31 173 l6 60 207 39 c114 21 216 42 227 46 11 4 -80 5 -202 2
-121 -3 -233 -2 -247 2 l-27 7 7 156 7 156 -144 -7 c-196 -9 -1082 -54 -1304
-66 -99 -5 -214 -10 -255 -11 l-75 -1 -232 111 -232 110 -188 21 c-299 33
-402 46 -410 53 -3 4 7 7 24 7 16 0 216 12 444 26 513 32 874 30 1379 -10 179
-14 453 -34 610 -45 157 -11 309 -23 338 -25 l52 -5 0 44 0 43 -212 6 c-117 3
-456 11 -753 16 -297 6 -557 13 -577 16 l-38 6 1 331 c0 183 -5 379 -11 436
-5 58 -8 106 -7 108 5 4 183 -41 687 -175 448 -119 761 -203 840 -223 312 -82
383 -100 393 -96 6 2 -61 30 -149 62 -234 85 -230 83 -244 152 -7 32 -25 112
-40 178 -22 97 -25 121 -13 123 12 3 95 -11 258 -43 39 -8 95 -19 125 -24 128
-23 437 -82 455 -87 14 -4 17 -3 10 4 -5 6 -57 24 -115 40 -116 34 -166 49
-515 152 -132 39 -276 82 -320 95 -44 13 -208 61 -365 108 -157 47 -350 104
-430 127 -80 23 -172 50 -205 61 -33 10 -121 37 -195 58 -421 123 -467 132
-572 111 -102 -19 -171 -63 -288 -180 -92 -92 -99 -97 -55 -42 82 105 179 190
260 229 48 23 44 35 -12 31 -27 -2 -73 -4 -103 -5z m521 -157 c79 -21 399
-107 702 -190 89 -24 86 -19 112 -171 22 -131 17 -145 -11 -28 -38 162 -20
144 -196 188 -84 21 -267 69 -407 107 -139 38 -255 67 -257 65 -3 -2 6 -65 20
-138 40 -217 55 -397 60 -704 6 -344 1 -337 -14 22 -12 297 -26 421 -71 648
-36 184 -43 225 -36 225 2 0 47 -11 98 -24z m-277 -437 c33 -5 67 -15 75 -24
21 -20 30 -119 30 -325 1 -301 -34 -447 -124 -511 -22 -15 -52 -31 -66 -34
l-26 -6 -7 101 c-7 115 -33 275 -49 305 -12 23 -25 36 -52 51 -15 8 -20 22
-20 53 5 413 4 399 23 404 22 5 139 -2 216 -14z m-304 -259 l0 -170 -68 0 -68
0 -14 -42 c-14 -40 -18 -43 -50 -43 -34 0 -35 1 -44 51 l-8 51 123 161 c68 89
125 162 127 162 1 0 2 -76 2 -170z m-165 -440 l0 -85 -27 -3 c-27 -3 -28 -1
-28 41 0 24 3 65 6 91 6 40 10 47 28 44 19 -3 21 -9 21 -88z m-631 -362 c-40
-79 -114 -151 -198 -192 -82 -41 -130 -51 -301 -66 -182 -15 -203 -11 -77 15
119 24 162 42 77 31 -66 -9 -439 -36 -488 -36 -33 0 -37 2 -28 18 23 43 120
125 186 158 85 42 161 58 364 79 86 9 215 22 286 29 72 7 147 14 168 15 l37 1
-26 -52z m526 -284 c54 -16 132 -61 181 -106 27 -24 107 -158 94 -158 -4 0
-24 15 -46 33 -111 95 -344 151 -490 117 -180 -42 -350 -231 -432 -480 -5 -13
-6 -13 -6 0 -2 41 62 259 96 327 73 146 195 249 333 280 68 16 196 10 270 -13z
m-2067 -110 c224 -4 407 -10 407 -14 0 -10 -341 -22 -692 -24 -158 0 -279 -4
-269 -8 26 -9 352 -28 636 -37 l250 -8 -210 -3 c-115 -2 -217 -4 -225 -6 -8
-1 -123 -2 -254 -3 -132 -1 -237 -3 -235 -6 6 -5 433 -34 665 -44 162 -7 141
-8 -221 -11 -249 -1 -385 -5 -360 -11 47 -10 446 -39 533 -39 35 0 64 -5 68
-12 5 -8 -82 -10 -352 -6 -197 3 -336 1 -309 -3 68 -11 404 -38 600 -48 129
-7 80 -9 -247 -7 -224 0 -399 -2 -390 -5 20 -8 204 -27 362 -39 101 -7 87 -8
-112 -7 -125 1 -216 -1 -202 -5 14 -4 112 -14 217 -23 338 -29 368 -33 192
-28 -247 7 -489 34 -519 57 -21 15 -36 120 -36 250 l0 109 148 -6 c81 -4 330
-10 555 -13z m2941 -61 c9 -43 21 -102 27 -130 l10 -53 142 -2 c118 -1 131 -2
77 -8 -36 -4 -96 -9 -135 -10 l-70 -3 70 -7 c39 -4 119 -8 178 -9 125 -1 141
-20 19 -22 -88 -2 -224 -14 -202 -19 8 -2 20 -4 25 -5 6 -2 111 -4 235 -5 151
-1 212 -5 185 -10 -43 -10 -451 -40 -528 -40 l-47 0 0 139 c0 76 -3 166 -6
200 -4 33 -4 61 -1 61 3 0 12 -35 21 -77z m-3704 -282 c9 -22 24 -34 54 -45
22 -8 48 -17 56 -20 8 -4 -14 -3 -50 0 -123 11 -140 33 -148 193 l-5 106 34
55 34 55 6 -157 c3 -88 12 -170 19 -187z m5051 303 c40 -38 68 -93 76 -149 7
-52 -4 -57 -31 -16 -11 16 -38 41 -60 56 -35 22 -48 26 -89 21 -51 -6 -118
-45 -160 -96 -33 -39 -41 -38 -33 5 16 82 80 184 130 206 12 5 47 7 79 6 47
-3 62 -8 88 -33z m-3276 -6 c-111 -27 -235 -70 -276 -96 -25 -16 -67 -56 -94
-88 -59 -74 -171 -192 -209 -221 -25 -20 -39 -23 -110 -21 -53 1 -64 3 -31 5
88 6 88 6 191 150 121 169 106 150 151 202 20 24 49 48 63 54 37 16 121 24
245 24 92 1 103 -1 70 -9z m3190 -252 c39 -17 90 -82 105 -135 20 -69 29 -194
19 -271 -26 -192 -140 -298 -221 -207 -64 70 -92 164 -91 302 1 152 47 272
119 310 35 18 28 18 69 1z m-2360 -80 c68 -18 111 -41 173 -93 67 -57 103
-110 136 -201 22 -62 26 -90 26 -182 0 -93 -4 -120 -25 -177 -49 -129 -121
-211 -235 -265 -120 -58 -280 -45 -379 30 -51 38 -101 94 -106 117 -21 107 -7
327 29 469 14 54 43 135 65 180 34 71 45 85 78 99 89 38 157 45 238 23z m1898
-3 c-7 -2 -21 -2 -30 0 -10 3 -4 5 12 5 17 0 24 -2 18 -5z m-108 -9 c-21 -4
-378 -35 -685 -59 -102 -8 -237 -19 -302 -25 -64 -5 -123 -10 -132 -10 -9 0
-16 -6 -16 -14 0 -30 63 -177 79 -185 10 -6 74 -4 166 5 241 23 625 54 648 53
46 -3 -119 -22 -587 -70 -110 -11 -213 -19 -230 -17 -28 3 -33 9 -59 78 -49
130 -59 161 -55 166 5 4 453 39 873 68 188 12 345 18 300 10z m-4445 -114 l23
-20 -34 -115 c-29 -99 -35 -111 -39 -83 -3 18 -1 35 3 37 5 2 13 15 18 28 7
20 6 30 -7 44 -16 18 -16 19 4 19 19 0 22 6 22 43 0 24 -5 48 -12 55 -20 20
-3 14 22 -8z m1827 -116 c80 -46 93 -123 31 -184 -41 -41 -67 -50 -141 -49
l-62 1 57 9 c68 10 109 29 137 65 28 35 27 76 -3 111 -34 40 -89 56 -175 51
-49 -2 -65 -1 -53 6 55 31 145 27 209 -10z m2471 -1 c-10 -2 -26 -2 -35 0 -10
3 -2 5 17 5 19 0 27 -2 18 -5z m-3167 -35 c60 -29 150 -47 238 -48 97 0 82
-13 -25 -21 -47 -4 -88 -9 -91 -13 -3 -3 7 -24 23 -47 l28 -41 90 6 c97 6 93
-7 -5 -20 -75 -10 -75 -34 0 -112 l32 -33 107 7 c203 12 294 33 377 90 42 28
54 27 28 -2 -72 -80 -197 -115 -410 -116 -152 0 -197 15 -261 90 -83 97 -200
282 -179 282 2 0 23 -10 48 -22z m642 -16 c9 -9 20 -29 26 -42 9 -24 10 -24
11 10 l2 35 9 -30 c10 -35 3 -65 -20 -82 -23 -18 -38 -16 -61 9 -23 25 -25 55
-8 93 13 30 20 31 41 7z m2855 -228 c8 -31 12 -57 10 -59 -2 -2 -167 -6 -368
-10 -370 -6 -527 -14 -770 -40 -280 -30 -326 -37 -369 -56 -24 -11 -46 -18
-47 -16 -2 2 1 17 8 34 l11 30 261 31 c144 17 405 48 581 67 176 20 383 45
460 55 77 10 156 18 175 19 35 1 36 0 48 -55z m-4233 7 c94 -11 153 -19 132
-20 -33 -1 -144 9 -272 24 -28 3 -34 2 -19 -4 21 -9 411 -61 604 -81 170 -17
170 -17 170 -46 0 -25 -1 -25 -67 -20 -38 3 -153 11 -258 17 -178 11 -248 19
-160 19 68 0 32 9 -100 25 -203 24 -362 52 -371 66 -2 4 14 19 36 32 36 21 47
23 88 15 26 -5 124 -17 217 -27z m365 -31 l75 -7 -60 0 c-33 0 -94 3 -135 7
l-75 7 60 0 c33 0 94 -3 135 -7z m198 -17 c-10 -2 -28 -2 -40 0 -13 2 -5 4 17
4 22 1 32 -1 23 -4z m-821 -19 c-3 -3 -12 -4 -19 -1 -8 3 -5 6 6 6 11 1 17 -2
13 -5z m56 -11 c-7 -2 -21 -2 -30 0 -10 3 -4 5 12 5 17 0 24 -2 18 -5z m64 -9
c-3 -3 -12 -4 -19 -1 -8 3 -5 6 6 6 11 1 17 -2 13 -5z m86 -11 c-7 -2 -21 -2
-30 0 -10 3 -4 5 12 5 17 0 24 -2 18 -5z m100 -10 c-13 -2 -33 -2 -45 0 -13 2
-3 4 22 4 25 0 35 -2 23 -4z m1194 -83 l361 0 11 -32 c6 -17 9 -33 7 -35 -2
-2 -57 0 -122 4 -78 5 -258 2 -524 -9 -223 -9 -430 -17 -459 -17 l-55 -1 48
30 c26 17 57 40 69 51 21 20 29 21 162 15 77 -3 303 -6 502 -6z"/>
<path d="M5130 5162 c8 -5 50 -15 93 -22 103 -17 115 -28 129 -115 11 -71 5
-504 -7 -555 -5 -20 -4 -22 4 -9 6 9 18 45 26 80 22 87 32 462 16 541 -12 54
-14 58 -49 68 -49 14 -232 24 -212 12z"/>
<path d="M2048 3683 c7 -3 16 -2 19 1 4 3 -2 6 -13 5 -11 0 -14 -3 -6 -6z"/>
<path d="M6796 3316 c-54 -49 -82 -169 -65 -275 11 -70 43 -153 65 -172 24
-19 28 -2 7 28 -25 35 -43 88 -43 122 1 23 3 21 14 -12 19 -53 34 -67 70 -67
40 1 61 30 75 105 14 76 -4 195 -29 195 -4 0 -10 7 -13 14 -4 10 -1 13 9 9 21
-8 52 -74 69 -146 l15 -62 -6 65 c-7 86 -29 153 -64 190 -34 37 -69 39 -104 6z
m83 -114 c9 -16 6 -18 -20 -14 -26 4 -31 0 -45 -34 -11 -26 -15 -56 -12 -92 3
-38 2 -49 -5 -37 -17 31 -14 138 6 168 20 32 61 36 76 9z"/>
<path d="M4339 3200 c-39 -11 -106 -59 -132 -94 -13 -17 -37 -56 -53 -86 -26
-50 -29 -64 -29 -160 0 -98 2 -109 32 -165 52 -100 160 -185 233 -184 20 0 14
5 -25 23 -59 27 -117 84 -144 141 -21 45 -32 137 -20 157 6 9 9 5 9 -12 1 -39
34 -102 76 -142 65 -61 150 -71 234 -28 41 22 61 44 92 102 32 62 32 176 -1
237 -30 57 -46 74 -101 105 -54 31 -27 36 37 7 99 -46 163 -149 173 -280 6
-86 6 -86 14 -37 29 166 -54 346 -186 406 -45 20 -157 26 -209 10z m135 -160
c26 -10 86 -62 86 -74 0 -4 -16 2 -36 14 -41 26 -106 24 -150 -5 -63 -41 -82
-172 -35 -236 32 -43 20 -46 -21 -5 -49 49 -64 102 -50 176 19 106 114 166
206 130z m-267 -157 c-3 -10 -5 -4 -5 12 0 17 2 24 5 18 2 -7 2 -21 0 -30z"/>
<path d="M3203 5048 c-7 -7 -21 -47 -32 -88 -21 -77 -81 -336 -81 -350 0 -4
30 -6 68 -3 55 4 71 9 89 29 29 32 63 44 122 44 l47 0 12 63 c28 141 41 260
32 277 -14 26 -36 32 -145 37 -79 4 -103 2 -112 -9z"/>
<path d="M3026 4908 c-27 -29 -88 -93 -136 -143 l-88 -90 -16 -101 c-9 -56
-16 -104 -16 -108 0 -3 23 -6 52 -6 51 0 95 21 150 70 16 15 113 400 106 421
-2 5 -25 -15 -52 -43z"/>
<path d="M5438 4169 c-16 -9 -17 -21 -11 -102 9 -131 17 -147 32 -62 7 39 15
94 18 123 6 55 -2 63 -39 41z"/>
<path d="M5811 4164 c-22 -16 -22 -20 -16 -113 4 -53 10 -100 13 -105 3 -6 14
33 23 85 10 51 20 106 23 122 6 31 -8 35 -43 11z"/>
</g>
</svg>
